<svg width="65" height="75" viewBox="0 0 65 75" fill="none" xmlns="http://www.w3.org/2000/svg">
<path d="M41.2534 13.4709H49.6764L41.2534 3.89185V13.4709Z" fill="black"/>
<path d="M50.1889 31.4928C50.9841 31.4928 51.7755 31.5426 52.5596 31.6415V18.2038H38.7921C37.4829 18.2038 36.5119 17.1958 36.5119 15.8889V0H0.951602C0.851121 0 0.76923 0.0815705 0.76923 0.182051V74.818C0.76923 74.9184 0.851121 75 0.951602 75H52.3774C52.478 75 52.5598 74.9184 52.5598 74.818V68.8439C51.7756 68.9429 50.9843 68.9926 50.1891 68.9926C40.6349 68.9926 32.7242 61.8348 31.5551 52.6091H8.79311V47.8761H31.555C32.724 38.6505 40.6349 31.4928 50.1889 31.4928ZM32.5 60.6189V65.3519H8.79311V60.6189H32.5ZM8.79311 9.64808H28.4881V14.3811H8.79311V9.64808ZM8.79311 22.3907H44.9005V27.1237H8.79311V22.3907ZM32.5 39.8665H8.79311V35.1335H32.5V39.8665Z" fill="black"/>
<path d="M50.1889 36.2258C42.4463 36.2258 36.1471 42.5138 36.1471 50.2428C36.1471 57.9718 42.4461 64.2598 50.1889 64.2598C57.9317 64.2598 64.2308 57.9718 64.2308 50.2428C64.2308 42.5138 57.9317 36.2258 50.1889 36.2258ZM49.9601 56.7401C49.159 57.5978 47.8024 57.7332 46.8473 57.0513L41.4117 53.172L44.1692 49.3218L47.9115 51.9927L55.7768 43.5709L59.2449 46.7984L49.9601 56.7401Z" fill="#EB7150"/>
</svg>
