<svg width="41" height="41" viewBox="0 0 41 41" fill="none" xmlns="http://www.w3.org/2000/svg">
<path d="M0 20.7135V40.6932H9.34748V0.733765H0V20.7135Z" fill="#072F57"/>
<path d="M2.33718 40.8241C3.68322 40.8614 5.81444 40.8614 7.1044 40.8241C8.39435 40.8054 7.29135 40.7681 4.67405 40.7681C2.05675 40.7681 0.991142 40.8054 2.33718 40.8241Z" fill="#072F57"/>
<path d="M11.5909 20.7136V40.6933H20.7514V0.733887H11.5909V20.7136Z" fill="#456381"/>
<path d="M20.7514 20.7135V40.6932L11.4974 40.7866L20.9384 40.8799C20.9384 9.77132 20.901 0.733765 20.8449 0.733765C20.7888 0.733765 20.7514 9.7153 20.7514 20.7135Z" fill="#456381"/>
<path d="M23.1821 20.7136V40.6933H32.3426V0.733887H23.1821V20.7136Z" fill="#8FB7E1"/>
<path d="M32.3425 20.7135V40.6932L23.0884 40.7866L32.5294 40.8799C32.5294 9.77132 32.492 0.733765 32.4359 0.733765C32.3798 0.733765 32.3425 9.7153 32.3425 20.7135Z" fill="#8FB7E1"/>
</svg>
